<svg viewBox="0 0 1680 940" xmlns="http://www.w3.org/2000/svg" font-family="'Helvetica Neue',Arial,sans-serif" role="img">
<title>ScaleWithMe — Who We Build For (four ranked personas)</title>
<desc>Hero-and-ladder strategy poster: AI-Displaced Professional (primary) leads; Stuck Shipper, Vision-First Founder, AI-Curious Owner ascend a value ladder.</desc>
<defs><pattern id="g" width="40" height="40" patternUnits="userSpaceOnUse"><path d="M40 0H0V40" fill="none" stroke="#EEF2F7" stroke-width="1"/></pattern></defs>
<rect width="1680" height="940" fill="#FFFFFF"/><rect width="1680" height="940" fill="url(#g)"/>
<circle cx="60" cy="60" r="7" fill="#12B5CE"/>
<text x="80" y="66" font-family="'SF Mono','Menlo',monospace" font-size="18" fill="#0C1B2A" letter-spacing="1">scalewithme</text>
<text x="48" y="122" font-size="44" font-weight="700" fill="#0C1B2A">Who We Build For</text>
<text x="48" y="150" font-family="'SF Mono','Menlo',monospace" font-size="14" fill="#7A8798">// four best-fit customers, ranked — lead with #1</text>
<g stroke-linecap="round" stroke-linejoin="round">
<polyline points="692,868 700,852 1022,674 1344,496 1616,238" fill="none" stroke="#12B5CE" stroke-width="3.5"/>
<path d="M1626,232 L1598,238 L1610,256 Z" fill="#12B5CE"/>
</g>
<text x="1644" y="212" text-anchor="end" font-family="'SF Mono','Menlo',monospace" font-size="12" fill="#0E8FA6" letter-spacing="1.5">VALUE LADDER ↗</text>
<rect x="48" y="172" width="620" height="712" rx="12" fill="#F1FBFD" stroke="#12B5CE" stroke-width="2"/>
<rect x="48" y="172" width="620" height="7" rx="3" fill="#12B5CE"/>
<text x="80" y="224" font-family="'SF Mono','Menlo',monospace" font-size="13" fill="#0E8FA6" letter-spacing="1.5">▲ 01 · PRIMARY</text>
<text x="80" y="290" font-size="50" font-weight="700" fill="#0C1B2A">Reset Rachel, 43</text>
<text x="80" y="320" font-size="16" fill="#6C7A8C">Laid off when AI automated her function</text>
<rect x="80" y="352" width="4" height="62" rx="2" fill="#12B5CE"/>
<text x="100" y="380" font-size="23" font-style="italic" font-weight="600" fill="#0C1B2A">“The tool that replaced her</text>
<text x="100" y="408" font-size="23" font-style="italic" font-weight="600" fill="#0C1B2A">is her leverage.”</text>
<text x="80" y="458" font-family="'SF Mono','Menlo',monospace" font-size="11" fill="#97A2B2" letter-spacing="1.5">SNAPSHOT</text>
<text x="80" y="478" font-size="13" fill="#37455A">15-yr marketing/ops pro; severance runway.</text>
<text x="80" y="496" font-size="13" fill="#37455A">Low tech, AI-anxious.</text>
<text x="80" y="530" font-family="'SF Mono','Menlo',monospace" font-size="11" fill="#97A2B2" letter-spacing="1.5">ACUTE PROBLEM</text>
<text x="80" y="550" font-size="13" fill="#37455A">Deep expertise + urgency, but no path</text>
<text x="80" y="568" font-size="13" fill="#37455A">to income she owns.</text>
<text x="80" y="602" font-family="'SF Mono','Menlo',monospace" font-size="11" fill="#97A2B2" letter-spacing="1.5">CHANNELS</text>
<text x="80" y="622" font-size="13" fill="#0E8FA6">▸ LinkedIn “open to work” + r/layoffs</text>
<text x="80" y="674" font-family="'SF Mono','Menlo',monospace" font-size="11" fill="#97A2B2" letter-spacing="1.5">PAIN</text>
<rect x="176" y="666" width="300" height="9" rx="4.5" fill="#E1E7EF"/><rect x="176" y="666" width="294" height="9" rx="4.5" fill="#12B5CE"/>
<text x="486" y="674" font-family="'SF Mono','Menlo',monospace" font-size="11" fill="#0E8FA6" letter-spacing="1.5">VERY HIGH</text>
<text x="80" y="696" font-family="'SF Mono','Menlo',monospace" font-size="11" fill="#97A2B2" letter-spacing="1.5">MARKET</text>
<rect x="176" y="688" width="300" height="9" rx="4.5" fill="#E1E7EF"/><rect x="176" y="688" width="258" height="9" rx="4.5" fill="#12B5CE"/>
<text x="486" y="696" font-family="'SF Mono','Menlo',monospace" font-size="11" fill="#0E8FA6" letter-spacing="1.5">VERY LARGE</text>
<rect x="80" y="826" width="556" height="40" rx="8" fill="#12B5CE"/>
<text x="96" y="851" font-family="'SF Mono','Menlo',monospace" font-size="13" fill="#04222a" font-weight="700">SERVE VIA ▸ Free assessment → 90-day program ↗</text>
<rect x="700" y="616" width="300" height="236" rx="10" fill="#FBFDFE" stroke="#E7ECF2" stroke-width="1.5"/>
<rect x="700" y="616" width="300" height="5" rx="2.5" fill="#C6CFDB"/>
<text x="720" y="646" font-family="'SF Mono','Menlo',monospace" font-size="11" fill="#8A97A8" letter-spacing="1.5">▲ 02 · SECONDARY</text>
<text x="720" y="678" font-size="21" font-weight="700" fill="#0C1B2A">Shipping Sam, 32</text>
<text x="720" y="700" font-size="12.5" fill="#6C7A8C">Technical builder who can’t sell</text>
<text x="720" y="730" font-family="'SF Mono','Menlo',monospace" font-size="11" fill="#97A2B2" letter-spacing="1.5">ACUTE PROBLEM</text>
<text x="720" y="748" font-size="12" fill="#37455A">Shipped a working product,</text>
<text x="720" y="764" font-size="12" fill="#37455A">got crickets.</text>
<text x="720" y="794" font-family="'SF Mono','Menlo',monospace" font-size="10" fill="#97A2B2" letter-spacing="1.5">PAIN</text>
<rect x="778" y="787" width="110" height="7" rx="3.5" fill="#E1E7EF"/><rect x="778" y="787" width="68" height="7" rx="3.5" fill="#C6CFDB"/>
<text x="906" y="794" font-family="'SF Mono','Menlo',monospace" font-size="10" fill="#97A2B2" letter-spacing="1.5">MKT</text>
<rect x="952" y="787" width="48" height="7" rx="3.5" fill="#E1E7EF"/><rect x="952" y="787" width="24" height="7" rx="3.5" fill="#C6CFDB"/>
<rect x="720" y="812" width="260" height="26" rx="6" fill="#EFF3F8"/>
<text x="732" y="829" font-family="'SF Mono','Menlo',monospace" font-size="11" fill="#55627A">SERVE VIA ▸ Membership</text>
<rect x="1022" y="438" width="300" height="236" rx="10" fill="#FBFDFE" stroke="#E7ECF2" stroke-width="1.5"/>
<rect x="1022" y="438" width="300" height="5" rx="2.5" fill="#C6CFDB"/>
<text x="1042" y="468" font-family="'SF Mono','Menlo',monospace" font-size="11" fill="#8A97A8" letter-spacing="1.5">▲ 03 · TERTIARY</text>
<text x="1042" y="500" font-size="21" font-weight="700" fill="#0C1B2A">Founder Priya, 41</text>
<text x="1042" y="522" font-size="12.5" fill="#6C7A8C">Non-technical, validated idea + budget</text>
<text x="1042" y="552" font-family="'SF Mono','Menlo',monospace" font-size="11" fill="#97A2B2" letter-spacing="1.5">ACUTE PROBLEM</text>
<text x="1042" y="570" font-size="12" fill="#37455A">Idea + budget, but every route</text>
<text x="1042" y="586" font-size="12" fill="#37455A">to built is costly / slow.</text>
<text x="1042" y="616" font-family="'SF Mono','Menlo',monospace" font-size="10" fill="#97A2B2" letter-spacing="1.5">PAIN</text>
<rect x="1100" y="609" width="110" height="7" rx="3.5" fill="#E1E7EF"/><rect x="1100" y="609" width="77" height="7" rx="3.5" fill="#C6CFDB"/>
<text x="1228" y="616" font-family="'SF Mono','Menlo',monospace" font-size="10" fill="#97A2B2" letter-spacing="1.5">MKT</text>
<rect x="1274" y="609" width="48" height="7" rx="3.5" fill="#E1E7EF"/><rect x="1274" y="609" width="24" height="7" rx="3.5" fill="#C6CFDB"/>
<rect x="1042" y="634" width="260" height="26" rx="6" fill="#EFF3F8"/>
<text x="1054" y="651" font-family="'SF Mono','Menlo',monospace" font-size="11" fill="#55627A">SERVE VIA ▸ Guided build / DFY</text>
<rect x="1344" y="260" width="300" height="236" rx="10" fill="#FBFDFE" stroke="#E7ECF2" stroke-width="1.5"/>
<rect x="1344" y="260" width="300" height="5" rx="2.5" fill="#C6CFDB"/>
<text x="1364" y="290" font-family="'SF Mono','Menlo',monospace" font-size="11" fill="#8A97A8" letter-spacing="1.5">▲ 04 · QUATERNARY</text>
<text x="1364" y="322" font-size="21" font-weight="700" fill="#0C1B2A">Owner Dave, 52</text>
<text x="1364" y="344" font-size="12.5" fill="#6C7A8C">SMB owner, one costly bottleneck</text>
<text x="1364" y="374" font-family="'SF Mono','Menlo',monospace" font-size="11" fill="#97A2B2" letter-spacing="1.5">ACUTE PROBLEM</text>
<text x="1364" y="392" font-size="12" fill="#37455A">A manual bottleneck bleeds money;</text>
<text x="1364" y="408" font-size="12" fill="#37455A">can’t tell real AI from hype.</text>
<text x="1364" y="438" font-family="'SF Mono','Menlo',monospace" font-size="10" fill="#97A2B2" letter-spacing="1.5">PAIN</text>
<rect x="1422" y="431" width="110" height="7" rx="3.5" fill="#E1E7EF"/><rect x="1422" y="431" width="60" height="7" rx="3.5" fill="#C6CFDB"/>
<text x="1550" y="438" font-family="'SF Mono','Menlo',monospace" font-size="10" fill="#97A2B2" letter-spacing="1.5">MKT</text>
<rect x="1596" y="431" width="48" height="7" rx="3.5" fill="#E1E7EF"/><rect x="1596" y="431" width="44" height="7" rx="3.5" fill="#C6CFDB"/>
<rect x="1364" y="456" width="260" height="26" rx="6" fill="#EFF3F8"/>
<text x="1376" y="473" font-family="'SF Mono','Menlo',monospace" font-size="11" fill="#55627A">SERVE VIA ▸ À-la-carte tools</text>
<circle cx="700" cy="852" r="6" fill="#12B5CE" stroke="#fff" stroke-width="2"/>
<circle cx="1022" cy="674" r="6" fill="#12B5CE" stroke="#fff" stroke-width="2"/>
<circle cx="1344" cy="496" r="6" fill="#12B5CE" stroke="#fff" stroke-width="2"/>
<text x="48" y="916" font-family="'SF Mono','Menlo',monospace" font-size="12.5" fill="#93A0B0">// one funnel doesn’t fit all four — lead with #1, climb the ladder</text>
<text x="1632" y="916" text-anchor="end" font-family="'SF Mono','Menlo',monospace" font-size="12.5" fill="#0E8FA6">scalewithme ↗</text>
</svg>