<svg viewBox="0 0 1680 720" xmlns="http://www.w3.org/2000/svg" font-family="'Helvetica Neue',Arial,sans-serif" role="img">
<title>ScaleWithMe — four prioritized customer personas</title>
<desc>Four ranked personas: AI-Displaced Professional (primary), Stuck Shipper, Vision-First Founder, AI-Curious Owner.</desc>
<defs><pattern id="g" width="40" height="40" patternUnits="userSpaceOnUse"><path d="M40 0H0V40" fill="none" stroke="#EEF2F7" stroke-width="1"/></pattern></defs>
<rect width="1680" height="720" fill="#FFFFFF"/><rect width="1680" height="720" fill="url(#g)"/>
<circle cx="52" cy="42" r="7" fill="#12B5CE"/>
<text x="70" y="48" font-family="'SF Mono','Menlo',monospace" font-size="19" fill="#0C1B2A" letter-spacing="1">scalewithme</text>
<text x="40" y="100" font-size="34" font-weight="700" fill="#0C1B2A">Who We Build For</text>
<text x="40" y="126" font-family="'SF Mono','Menlo',monospace" font-size="13" fill="#7A8798">// four best-fit customers, ranked — lead with #1</text>
<g stroke-linecap="round" stroke-linejoin="round">
<line x1="1300" y1="120" x2="1600" y2="120" stroke="#E1E7EF" stroke-width="1.5"/>
<g fill="#12B5CE">
<rect x="1308" y="104" width="34" height="14" rx="3" opacity="0.3"/>
<rect x="1362" y="94" width="34" height="24" rx="3" opacity="0.42"/>
<rect x="1416" y="82" width="34" height="36" rx="3" opacity="0.55"/>
<rect x="1470" y="64" width="34" height="54" rx="3" opacity="0.7"/>
<rect x="1524" y="44" width="34" height="76" rx="3" opacity="0.85"/>
<rect x="1578" y="26" width="34" height="94" rx="3"/>
</g>
<polyline points="1325,104 1379,94 1433,82 1487,64 1541,44 1595,26 1630,8" fill="none" stroke="#0E8FA6" stroke-width="2.5"/>
<path d="M1639,6 L1625,16 L1622,1 Z" fill="#0E8FA6"/>
</g>
<text x="1600" y="146" text-anchor="end" font-family="'SF Mono','Menlo',monospace" font-size="13" fill="#0E8FA6" letter-spacing="1">SCALE ↗</text>
<rect x="40" y="150" width="382" height="520" rx="10" fill="#FBFDFE" stroke="#12B5CE" stroke-width="1.8"/>
<rect x="40" y="150" width="382" height="6" rx="3" fill="#12B5CE"/>
<text x="62" y="186" font-family="'SF Mono','Menlo',monospace" font-size="12" fill="#0E8FA6" letter-spacing="2">▲ 01 · PRIMARY</text>
<text x="62" y="222" font-size="22" font-weight="700" fill="#0C1B2A">Reset Rachel, 43</text>
<text x="62" y="245" font-size="13" fill="#6C7A8C">Laid off when AI automated her function</text>
<line x1="62" y1="262" x2="400" y2="262" stroke="#E7ECF2"/>
<text x="62" y="288" font-family="'SF Mono','Menlo',monospace" font-size="10.5" fill="#97A2B2" letter-spacing="1.5">SNAPSHOT</text>
<text x="62" y="306" font-size="12.5" fill="#37455A">15-yr marketing/ops pro; severance</text>
<text x="62" y="323" font-size="12.5" fill="#37455A">runway. Low tech, AI-anxious.</text>
<text x="62" y="353" font-family="'SF Mono','Menlo',monospace" font-size="10.5" fill="#97A2B2" letter-spacing="1.5">JOBS TO BE DONE</text>
<text x="62" y="371" font-size="12.5" fill="#37455A">Replace income fast, on her own terms</text>
<text x="62" y="388" font-size="12.5" fill="#37455A">Regain agency after the layoff</text>
<text x="62" y="405" font-size="12.5" fill="#37455A">Be seen as adapted, not replaced</text>
<text x="62" y="435" font-family="'SF Mono','Menlo',monospace" font-size="10.5" fill="#97A2B2" letter-spacing="1.5">ACUTE PROBLEM</text>
<text x="62" y="453" font-size="12.5" fill="#37455A">Deep expertise + urgency, but no path</text>
<text x="62" y="470" font-size="12.5" fill="#37455A">to turn it into income she owns.</text>
<text x="62" y="500" font-family="'SF Mono','Menlo',monospace" font-size="10.5" fill="#97A2B2" letter-spacing="1.5">CHANNELS</text>
<text x="62" y="518" font-size="12.5" fill="#0E8FA6">▸ LinkedIn “open to work” + r/layoffs</text>
<rect x="62" y="624" width="338" height="34" rx="7" fill="#E2F6FA"/>
<text x="76" y="646" font-family="'SF Mono','Menlo',monospace" font-size="12" fill="#0B7E92">SERVE VIA ▸ Free assessment → 90-day program ↗</text>
<rect x="446" y="150" width="382" height="520" rx="10" fill="#FBFDFE" stroke="#E1E7EF" stroke-width="1.5"/>
<rect x="446" y="150" width="382" height="6" rx="3" fill="#C6CFDB"/>
<text x="468" y="186" font-family="'SF Mono','Menlo',monospace" font-size="12" fill="#8A97A8" letter-spacing="2">▲ 02 · SECONDARY</text>
<text x="468" y="222" font-size="22" font-weight="700" fill="#0C1B2A">Shipping Sam, 32</text>
<text x="468" y="245" font-size="13" fill="#6C7A8C">Technical builder who can’t sell</text>
<line x1="468" y1="262" x2="806" y2="262" stroke="#E7ECF2"/>
<text x="468" y="288" font-family="'SF Mono','Menlo',monospace" font-size="10.5" fill="#97A2B2" letter-spacing="1.5">SNAPSHOT</text>
<text x="468" y="306" font-size="12.5" fill="#37455A">Self-taught full-stack; ships a</text>
<text x="468" y="323" font-size="12.5" fill="#37455A">micro-SaaS at night.</text>
<text x="468" y="353" font-family="'SF Mono','Menlo',monospace" font-size="10.5" fill="#97A2B2" letter-spacing="1.5">JOBS TO BE DONE</text>
<text x="468" y="371" font-size="12.5" fill="#37455A">First 10 paying customers</text>
<text x="468" y="388" font-size="12.5" fill="#37455A">Feel legitimate, not a hobbyist</text>
<text x="468" y="405" font-size="12.5" fill="#37455A">Post a real revenue screenshot</text>
<text x="468" y="435" font-family="'SF Mono','Menlo',monospace" font-size="10.5" fill="#97A2B2" letter-spacing="1.5">ACUTE PROBLEM</text>
<text x="468" y="453" font-size="12.5" fill="#37455A">Shipped a working product, got</text>
<text x="468" y="470" font-size="12.5" fill="#37455A">crickets — features won’t fix it.</text>
<text x="468" y="500" font-family="'SF Mono','Menlo',monospace" font-size="10.5" fill="#97A2B2" letter-spacing="1.5">CHANNELS</text>
<text x="468" y="518" font-size="12.5" fill="#0E8FA6">▸ X #buildinpublic + r/ClaudeAI</text>
<rect x="468" y="624" width="338" height="34" rx="7" fill="#EFF3F8"/>
<text x="482" y="646" font-family="'SF Mono','Menlo',monospace" font-size="12" fill="#55627A">SERVE VIA ▸ Membership ↗</text>
<rect x="852" y="150" width="382" height="520" rx="10" fill="#FBFDFE" stroke="#E1E7EF" stroke-width="1.5"/>
<rect x="852" y="150" width="382" height="6" rx="3" fill="#C6CFDB"/>
<text x="874" y="186" font-family="'SF Mono','Menlo',monospace" font-size="12" fill="#8A97A8" letter-spacing="2">▲ 03 · TERTIARY</text>
<text x="874" y="222" font-size="22" font-weight="700" fill="#0C1B2A">Founder Priya, 41</text>
<text x="874" y="245" font-size="13" fill="#6C7A8C">Non-technical, validated idea + budget</text>
<line x1="874" y1="262" x2="1212" y2="262" stroke="#E7ECF2"/>
<text x="874" y="288" font-family="'SF Mono','Menlo',monospace" font-size="10.5" fill="#97A2B2" letter-spacing="1.5">SNAPSHOT</text>
<text x="874" y="306" font-size="12.5" fill="#37455A">Ex-consultant with real budget;</text>
<text x="874" y="323" font-size="12.5" fill="#37455A">can’t build it herself.</text>
<text x="874" y="353" font-family="'SF Mono','Menlo',monospace" font-size="10.5" fill="#97A2B2" letter-spacing="1.5">JOBS TO BE DONE</text>
<text x="874" y="371" font-size="12.5" fill="#37455A">Turn the idea into a product</text>
<text x="874" y="388" font-size="12.5" fill="#37455A">Feel capable, not dependent</text>
<text x="874" y="405" font-size="12.5" fill="#37455A">Be a founder who builds</text>
<text x="874" y="435" font-family="'SF Mono','Menlo',monospace" font-size="10.5" fill="#97A2B2" letter-spacing="1.5">ACUTE PROBLEM</text>
<text x="874" y="453" font-size="12.5" fill="#37455A">Has the idea and the budget, but every</text>
<text x="874" y="470" font-size="12.5" fill="#37455A">route to “built” is costly or slow.</text>
<text x="874" y="500" font-family="'SF Mono','Menlo',monospace" font-size="10.5" fill="#97A2B2" letter-spacing="1.5">CHANNELS</text>
<text x="874" y="518" font-size="12.5" fill="#0E8FA6">▸ YouTube (high-intent) + LinkedIn</text>
<rect x="874" y="624" width="338" height="34" rx="7" fill="#EFF3F8"/>
<text x="888" y="646" font-family="'SF Mono','Menlo',monospace" font-size="12" fill="#55627A">SERVE VIA ▸ Guided build / DFY ↗</text>
<rect x="1258" y="150" width="382" height="520" rx="10" fill="#FBFDFE" stroke="#E1E7EF" stroke-width="1.5"/>
<rect x="1258" y="150" width="382" height="6" rx="3" fill="#C6CFDB"/>
<text x="1280" y="186" font-family="'SF Mono','Menlo',monospace" font-size="12" fill="#8A97A8" letter-spacing="2">▲ 04 · QUATERNARY</text>
<text x="1280" y="222" font-size="22" font-weight="700" fill="#0C1B2A">Owner Dave, 52</text>
<text x="1280" y="245" font-size="13" fill="#6C7A8C">SMB owner, one costly bottleneck</text>
<line x1="1280" y1="262" x2="1618" y2="262" stroke="#E7ECF2"/>
<text x="1280" y="288" font-family="'SF Mono','Menlo',monospace" font-size="10.5" fill="#97A2B2" letter-spacing="1.5">SNAPSHOT</text>
<text x="1280" y="306" font-size="12.5" fill="#37455A">Owner-operator, 5–50 staff,</text>
<text x="1280" y="323" font-size="12.5" fill="#37455A">time-poor, delegates.</text>
<text x="1280" y="353" font-family="'SF Mono','Menlo',monospace" font-size="10.5" fill="#97A2B2" letter-spacing="1.5">JOBS TO BE DONE</text>
<text x="1280" y="371" font-size="12.5" fill="#37455A">Save time / make money</text>
<text x="1280" y="388" font-size="12.5" fill="#37455A">Not fall behind on AI</text>
<text x="1280" y="405" font-size="12.5" fill="#37455A">Look sharp to peers</text>
<text x="1280" y="435" font-family="'SF Mono','Menlo',monospace" font-size="10.5" fill="#97A2B2" letter-spacing="1.5">ACUTE PROBLEM</text>
<text x="1280" y="453" font-size="12.5" fill="#37455A">A manual bottleneck bleeds money;</text>
<text x="1280" y="470" font-size="12.5" fill="#37455A">can’t tell real AI from hype.</text>
<text x="1280" y="500" font-family="'SF Mono','Menlo',monospace" font-size="10.5" fill="#97A2B2" letter-spacing="1.5">CHANNELS</text>
<text x="1280" y="518" font-size="12.5" fill="#0E8FA6">▸ Industry FB groups + YouTube</text>
<rect x="1280" y="624" width="338" height="34" rx="7" fill="#EFF3F8"/>
<text x="1294" y="646" font-family="'SF Mono','Menlo',monospace" font-size="12" fill="#55627A">SERVE VIA ▸ À-la-carte tools ↗</text>
<text x="40" y="700" font-family="'SF Mono','Menlo',monospace" font-size="12.5" fill="#93A0B0">// one funnel doesn’t fit all four — build the tech, then sell it</text>
<text x="1640" y="700" text-anchor="end" font-family="'SF Mono','Menlo',monospace" font-size="12.5" fill="#0E8FA6">scalewithme ↗</text>
</svg>